<?xml version="1.0" standalone="no"?>
<!DOCTYPE svg PUBLIC "-//W3C//DTD SVG 20010904//EN"
 "http://www.w3.org/TR/2001/REC-SVG-20010904/DTD/svg10.dtd">
<svg version="1.0" xmlns="http://www.w3.org/2000/svg"
 width="1100.000000pt" height="1100.000000pt" viewBox="0 0 1100.000000 1100.000000"
 preserveAspectRatio="xMidYMid meet">
<metadata>
Created by potrace 1.14, written by Peter Selinger 2001-2017
</metadata>
<g transform="translate(0.000000,1100.000000) scale(0.100000,-0.100000)"
fill="#000000" stroke="none">
<path d="M4631 9257 c-476 -953 -865 -1734 -866 -1737 -1 -5 -1866 -3740
-3109 -6229 -350 -700 -636 -1275 -636 -1277 0 -2 452 -4 1005 -4 553 0 1005
4 1005 8 0 4 -66 32 -147 61 -182 65 -258 106 -315 170 -65 72 -122 189 -149
306 -11 51 -15 220 -5 290 2 22 8 65 11 95 13 111 17 137 40 255 104 519 375
1081 778 1614 90 119 220 281 272 337 5 6 39 44 75 85 360 407 818 748 1311
974 125 57 281 120 404 163 105 36 323 100 369 107 17 3 54 12 81 20 28 7 64
16 80 19 17 2 68 12 115 20 47 8 101 17 120 20 97 13 128 17 160 21 48 6 152
15 230 20 81 6 374 6 455 0 136 -9 230 -17 235 -20 3 -1 32 -6 65 -10 143 -16
315 -57 520 -122 267 -86 568 -249 779 -421 142 -116 318 -305 300 -322 -9 -9
-39 -16 -114 -26 -183 -24 -561 -116 -839 -205 -497 -159 -677 -221 -816 -284
-16 -7 -79 -35 -140 -60 -206 -89 -592 -284 -820 -415 -55 -32 -122 -70 -150
-86 -27 -15 -101 -58 -164 -96 -63 -37 -116 -68 -117 -68 -12 0 -367 -231
-468 -304 -95 -69 -272 -200 -276 -206 -3 -3 -48 -39 -100 -80 -52 -40 -97
-77 -100 -80 -3 -4 -36 -33 -75 -65 -38 -33 -75 -64 -81 -70 -6 -5 -47 -41
-90 -80 -109 -96 -532 -520 -635 -635 -46 -52 -86 -97 -89 -100 -23 -22 -245
-286 -327 -390 -18 -22 -189 -250 -214 -285 -25 -36 -14 -24 161 170 278 307
648 641 1223 1102 282 228 508 379 752 505 317 165 702 293 995 333 25 4 56 8
70 10 161 23 497 26 640 7 267 -36 443 -82 647 -168 703 -294 1100 -887 925
-1381 -39 -111 -83 -181 -173 -277 -178 -189 -438 -323 -804 -414 -66 -17
-131 -32 -145 -35 -14 -2 991 -5 2233 -6 1241 0 2257 1 2257 3 0 5 -5476
10966 -5481 10971 -2 2 -393 -776 -868 -1728z m1113 -3477 c327 -657 329 -661
379 -687 21 -10 66 -16 141 -19 472 -13 937 -123 1354 -320 52 -24 96 -44 97
-44 8 0 227 -127 290 -168 469 -306 801 -696 929 -1093 56 -175 92 -356 96
-482 3 -100 2 -107 -21 -107 -26 0 -412 116 -448 135 -51 26 -64 50 -86 156
-6 29 -46 164 -54 184 -5 11 -15 36 -22 55 -7 19 -36 84 -66 144 -145 297
-362 531 -692 748 -210 138 -582 314 -811 383 -160 48 -260 75 -372 100 -42 9
-203 38 -228 40 -14 2 -63 6 -110 10 -47 3 -112 8 -145 11 -82 7 -491 6 -650
0 -189 -9 -345 -17 -385 -21 -83 -9 -136 -16 -152 -21 -9 -2 -19 0 -22 5 -4 5
123 265 280 578 307 607 361 717 414 831 19 40 37 69 41 65 4 -5 114 -222 243
-483z"/>
</g>
</svg>
