<svg width="76" height="76" viewBox="0 0 76 76" fill="none" xmlns="http://www.w3.org/2000/svg">
<g clip-path="url(#clip0_604_12)">
<path d="M76 75.9902L37.9809 0L0 75.9998L13.2793 75.9909C13.2793 75.9909 13.9224 76.022 13.9743 75.9694L14.0235 75.914L12.8504 75.4864C12.5407 75.375 12.2309 75.2629 11.9406 75.1411C10.7917 74.6532 10.4466 74.0996 10.0336 73.1724C9.60749 72.2403 9.56453 71.2217 9.68787 70.2245C9.81191 69.2197 9.94841 62.178 18.3059 53.1856C26.4 44.4763 36.9859 44.2479 38.9926 44.2175C49.3201 44.0618 53.5061 49.7029 54.0445 50.3215C54.0784 50.3609 54.084 50.4101 54.059 50.453C54.0334 50.4952 53.9821 50.5256 53.9204 50.5332C51.5783 50.8273 48.8496 51.5574 46.592 52.3338C40.621 54.0119 35.6111 56.9867 32.1139 59.0475C21.6305 65.2256 14.9036 75.2331 14.9036 75.2331C17.9365 71.7137 20.4962 69.4834 25.1714 65.7369C45.1244 49.7464 64.498 72.407 44.5527 75.9909L76 75.9902ZM62.4754 56.1723C62.474 56.2152 62.4352 56.2518 62.3867 56.2733C62.3576 56.2864 62.325 56.2927 62.2924 56.2927C62.2696 56.2927 62.2467 56.2899 62.2252 56.2837C61.1948 55.9827 60.1873 55.6768 59.3884 55.4242C59.0384 55.3128 58.7911 55.063 58.7259 54.7551C58.0441 51.5221 56.4032 48.9915 53.7098 47.02C52.5214 46.1488 49.9659 44.5302 46.204 43.4777C45.1874 43.1933 44.1328 42.9663 43.0705 42.803L43.0719 42.8065C41.6535 42.6591 39.9142 42.5629 37.9338 42.6335C35.9548 42.7041 34.2363 42.7269 32.8442 42.9739C34.5565 39.2967 36.2687 36.308 37.9816 32.6308C37.9816 32.6308 40.4852 37.5944 41.1123 38.8974C41.7394 40.2005 42.054 40.9243 42.6811 40.927C52.5228 40.9706 60.5033 47.0131 61.939 52.6777C62.0769 53.2244 62.535 54.6028 62.4754 56.1723Z" fill="white"/>
</g>
<defs>
<clipPath id="clip0_604_12">
<rect width="76" height="76" fill="white"/>
</clipPath>
</defs>
</svg>
