<svg width="25" height="19" viewBox="0 0 25 19" fill="none" xmlns="http://www.w3.org/2000/svg">
<path d="M0 9.47368C0 8.47026 0.8146 7.65683 1.81946 7.65683H22.9252C23.93 7.65683 24.7446 8.47026 24.7446 9.47368C24.7446 10.4771 23.93 11.2905 22.9252 11.2905H1.81946C0.8146 11.2905 0 10.4771 0 9.47368Z" fill="#171717"/>
<path d="M14.2342 18.4679C13.5236 17.7583 13.5236 16.608 14.2342 15.8985L21.894 8.24963C22.6045 7.5401 23.7566 7.5401 24.4671 8.24963C25.1776 8.95915 25.1776 10.1095 24.4671 10.819L16.8073 18.4679C16.0967 19.1774 14.9447 19.1774 14.2342 18.4679Z" fill="#171717"/>
<path d="M14.1787 0.532142C14.8893 -0.177381 16.0413 -0.17738 16.7518 0.532142L24.4465 8.21579C25.1571 8.92531 25.1571 10.0757 24.4465 10.7852C23.736 11.4947 22.584 11.4947 21.8734 10.7852L14.1787 3.10155C13.4682 2.39203 13.4682 1.24166 14.1787 0.532142Z" fill="#171717"/>
</svg>
