<svg width="129" height="57" viewBox="0 0 129 57" fill="none" xmlns="http://www.w3.org/2000/svg">
<path d="M46.4463 17.9813L54.6798 5.01359H58.9627L62.0273 17.9813H57.6889L55.6029 7.03285H57.3013L51.043 17.9813H46.4463ZM50.2492 15.7212L51.9845 12.5719H57.9289L58.4089 15.7212H50.2492Z" fill="white"/>
<path d="M69.8897 18.2777C68.5605 18.2777 67.3975 18.0369 66.4006 17.5552C65.4037 17.0612 64.6284 16.3819 64.0745 15.5174C63.533 14.6406 63.2623 13.6279 63.2623 12.4793C63.2623 11.3431 63.4592 10.2995 63.853 9.34851C64.2591 8.39754 64.8253 7.57626 65.5514 6.88464C66.2775 6.19303 67.139 5.66198 68.1359 5.29147C69.1328 4.90861 70.2281 4.71719 71.4219 4.71719C72.665 4.71719 73.7665 4.93949 74.7264 5.3841C75.6864 5.8287 76.4002 6.47091 76.8679 7.31073L73.7296 9.77459C73.4588 9.29293 73.108 8.92243 72.6773 8.66307C72.2465 8.39137 71.7358 8.25552 71.145 8.25552C70.6281 8.25552 70.1543 8.35432 69.7236 8.55192C69.3051 8.73717 68.942 9.00888 68.6344 9.36703C68.3267 9.71284 68.0867 10.1266 67.9144 10.6082C67.7421 11.0899 67.6559 11.6209 67.6559 12.2014C67.6559 12.7078 67.7667 13.1524 67.9882 13.5352C68.2098 13.9181 68.5174 14.2145 68.9113 14.4244C69.3174 14.6344 69.7851 14.7394 70.3143 14.7394C70.8189 14.7394 71.3112 14.622 71.7912 14.3874C72.2835 14.1527 72.7511 13.7699 73.1942 13.2388L75.7602 15.7027C74.9726 16.666 74.0926 17.3391 73.1203 17.7219C72.1604 18.0924 71.0835 18.2777 69.8897 18.2777Z" fill="white"/>
<path d="M76.2797 17.9813L78.8643 5.01359H84.661C86.3717 5.01359 87.6947 5.39027 88.6301 6.14363C89.5654 6.88464 90.0331 7.92824 90.0331 9.27441C90.0331 10.3612 89.7623 11.3122 89.2208 12.1273C88.6916 12.9424 87.9347 13.5785 86.9501 14.0354C85.9778 14.4924 84.8271 14.7208 83.4979 14.7208H79.3258L81.6519 12.8868L80.6365 17.9813H76.2797ZM84.181 17.9813L81.5226 13.2573H86.0086L88.7039 17.9813H84.181ZM81.5411 13.4055L80.0088 11.4233H83.7195C84.3225 11.4233 84.7902 11.2751 85.1225 10.9787C85.4548 10.67 85.6209 10.2439 85.6209 9.70049C85.6209 9.23118 85.4733 8.89773 85.1779 8.70012C84.8948 8.49017 84.501 8.38519 83.9964 8.38519H80.618L82.9441 6.34741L81.5411 13.4055Z" fill="white"/>
<path d="M97.3088 18.2777C95.9673 18.2777 94.8043 18.0307 93.8197 17.5367C92.8475 17.0427 92.0906 16.3634 91.549 15.4989C91.0198 14.622 90.7552 13.6155 90.7552 12.4793C90.7552 11.3307 90.9521 10.2871 91.346 9.34851C91.7521 8.39754 92.3182 7.57626 93.0444 6.88464C93.7705 6.19303 94.632 5.66198 95.6289 5.29147C96.6258 4.90861 97.715 4.71719 98.8965 4.71719C100.238 4.71719 101.395 4.96419 102.367 5.4582C103.352 5.95221 104.109 6.63764 104.638 7.51451C105.179 8.37902 105.45 9.37938 105.45 10.5156C105.45 11.6642 105.247 12.7139 104.841 13.6649C104.447 14.6035 103.887 15.4186 103.161 16.1102C102.435 16.8019 101.573 17.3391 100.576 17.7219C99.5795 18.0924 98.4903 18.2777 97.3088 18.2777ZM97.678 14.7394C98.2196 14.7394 98.6934 14.6344 99.0995 14.4244C99.518 14.2145 99.8749 13.9243 100.17 13.5538C100.466 13.1832 100.687 12.7633 100.835 12.294C100.983 11.8124 101.056 11.306 101.056 10.775C101.056 10.2686 100.952 9.83017 100.743 9.45966C100.546 9.07681 100.256 8.7804 99.8749 8.57045C99.5057 8.36049 99.0565 8.25552 98.5272 8.25552C97.998 8.25552 97.5242 8.36049 97.1058 8.57045C96.6873 8.7804 96.3304 9.07063 96.035 9.44114C95.7397 9.81164 95.5181 10.2377 95.3704 10.7194C95.2227 11.1887 95.1489 11.6889 95.1489 12.2199C95.1489 12.7139 95.2474 13.1524 95.4443 13.5352C95.6535 13.9181 95.9427 14.2145 96.3119 14.4244C96.6935 14.6344 97.1488 14.7394 97.678 14.7394Z" fill="white"/>
<path d="M54.5214 35.1649L52.968 22.1971H57.2767L58.5156 33.1456H56.2596L61.9552 22.1971H65.9679L67.059 33.1456H64.9324L70.6095 22.1971H74.8996L68.1685 35.1649H63.49L62.5099 26.1986H63.8414L59.1998 35.1649H54.5214Z" fill="white"/>
<path d="M80.3851 35.4613C79.0414 35.4613 77.8764 35.2143 76.8901 34.7202C75.9162 34.2262 75.158 33.547 74.6156 32.6825C74.0855 31.8056 73.8204 30.7991 73.8204 29.6628C73.8204 28.5143 74.0177 27.4707 74.4122 26.5321C74.819 25.5811 75.3861 24.7598 76.1135 24.0682C76.8408 23.3766 77.7038 22.8455 78.7023 22.475C79.7009 22.0922 80.7919 21.9007 81.9754 21.9007C83.3192 21.9007 84.478 22.1477 85.452 22.6418C86.4382 23.1358 87.1964 23.8212 87.7265 24.6981C88.2689 25.5626 88.5401 26.5629 88.5401 27.6992C88.5401 28.8477 88.3367 29.8975 87.9299 30.8485C87.5354 31.7871 86.9745 32.6022 86.2471 33.2938C85.5198 33.9854 84.6568 34.5226 83.6582 34.9055C82.6597 35.276 81.5686 35.4613 80.3851 35.4613ZM80.755 31.9229C81.2974 31.9229 81.772 31.818 82.1789 31.608C82.598 31.398 82.9555 31.1078 83.2514 30.7373C83.5473 30.3668 83.7692 29.9469 83.9171 29.4776C84.065 28.9959 84.139 28.4896 84.139 27.9585C84.139 27.4522 84.0342 27.0137 83.8247 26.6432C83.6274 26.2604 83.3377 25.964 82.9555 25.754C82.5857 25.544 82.1357 25.4391 81.6056 25.4391C81.0755 25.4391 80.6009 25.544 80.1817 25.754C79.7626 25.964 79.405 26.2542 79.1092 26.6247C78.8133 26.9952 78.5914 27.4213 78.4435 27.9029C78.2955 28.3722 78.2216 28.8724 78.2216 29.4035C78.2216 29.8975 78.3202 30.3359 78.5174 30.7188C78.727 31.1016 79.0167 31.398 79.3866 31.608C79.7687 31.818 80.2249 31.9229 80.755 31.9229Z" fill="white"/>
<path d="M88.7742 35.1649L91.3631 22.1971H97.1696C98.8832 22.1971 100.208 22.5738 101.145 23.3272C102.082 24.0682 102.551 25.1118 102.551 26.458C102.551 27.5448 102.28 28.4957 101.737 29.3109C101.207 30.126 100.449 30.762 99.4626 31.219C98.4887 31.6759 97.336 31.9044 96.0046 31.9044H91.8254L94.1554 30.0704L93.1383 35.1649H88.7742ZM96.6888 35.1649L94.0259 30.4409H98.5195L101.219 35.1649H96.6888ZM94.0444 30.5891L92.5096 28.6069H96.2265C96.8306 28.6069 97.299 28.4587 97.6319 28.1623C97.9647 27.8535 98.1312 27.4275 98.1312 26.884C98.1312 26.4147 97.9832 26.0813 97.6874 25.8837C97.4038 25.6737 97.0093 25.5688 96.5039 25.5688H93.1198L95.4498 23.531L94.0444 30.5891Z" fill="white"/>
<path d="M102.553 35.1649L105.142 22.1971H109.506L107.601 31.7747H113.445L112.761 35.1649H102.553Z" fill="white"/>
<path d="M113.966 35.1649L116.555 22.1971H122.398C123.767 22.1971 124.944 22.4194 125.93 22.8641C126.917 23.3087 127.675 23.9447 128.205 24.7722C128.735 25.5873 129 26.5629 129 27.6992C129 28.8477 128.797 29.879 128.39 30.7929C127.995 31.7068 127.434 32.491 126.707 33.1456C125.992 33.8002 125.141 34.3003 124.155 34.6461C123.169 34.992 122.084 35.1649 120.901 35.1649H113.966ZM119.014 31.7562H121.048C121.825 31.7562 122.472 31.5895 122.99 31.256C123.52 30.9102 123.921 30.4533 124.192 29.8851C124.463 29.3047 124.599 28.6625 124.599 27.9585C124.599 27.4522 124.494 27.0261 124.285 26.6803C124.087 26.3345 123.785 26.0689 123.378 25.8837C122.984 25.6984 122.491 25.6058 121.899 25.6058H120.235L119.014 31.7562Z" fill="white"/>
<path d="M63.1877 51.832L65.093 42.2909H61.3008L61.9852 38.9137H73.9355L73.251 42.2909H69.4587L67.5534 51.832H63.1877Z" fill="white"/>
<path d="M79.5874 52.1272C78.2432 52.1272 77.0777 51.8812 76.0911 51.389C75.1169 50.8969 74.3584 50.2203 73.8158 49.359C73.2855 48.4855 73.0203 47.4828 73.0203 46.3509C73.0203 45.2068 73.2177 44.1671 73.6123 43.2321C74.0193 42.2848 74.5866 41.4666 75.3142 40.7777C76.0418 40.0887 76.9051 39.5597 77.904 39.1906C78.903 38.8092 79.9944 38.6185 81.1783 38.6185C82.5225 38.6185 83.6818 38.8645 84.6561 39.3567C85.6427 39.8488 86.4011 40.5316 86.9314 41.4051C87.4741 42.2663 87.7454 43.2629 87.7454 44.3948C87.7454 45.5389 87.5419 46.5847 87.1349 47.532C86.7403 48.4671 86.1791 49.2791 85.4515 49.968C84.7239 50.657 83.8606 51.1922 82.8617 51.5736C81.8628 51.9427 80.7713 52.1272 79.5874 52.1272ZM79.9574 48.6024C80.5 48.6024 80.9748 48.4978 81.3818 48.2887C81.8011 48.0795 82.1587 47.7904 82.4547 47.4213C82.7507 47.0522 82.9727 46.6339 83.1207 46.1664C83.2687 45.6866 83.3427 45.1822 83.3427 44.6531C83.3427 44.1487 83.2378 43.7119 83.0282 43.3428C82.8309 42.9614 82.541 42.6662 82.1587 42.457C81.7888 42.2479 81.3386 42.1433 80.8083 42.1433C80.278 42.1433 79.8032 42.2479 79.3839 42.457C78.9646 42.6662 78.607 42.9553 78.311 43.3244C78.015 43.6935 77.793 44.1179 77.645 44.5978C77.497 45.0653 77.423 45.5635 77.423 46.0926C77.423 46.5847 77.5217 47.0215 77.719 47.4029C77.9287 47.7842 78.2185 48.0795 78.5885 48.2887C78.9708 48.4978 79.4271 48.6024 79.9574 48.6024Z" fill="white"/>
<path d="M94.5096 52.1272C93.1653 52.1272 92.0431 51.875 91.1428 51.3706C90.2425 50.8539 89.6012 50.1403 89.2189 49.2299C88.8489 48.3071 88.7873 47.2368 89.0339 46.0188L90.4583 38.9137H94.824L93.4181 45.9449C93.3318 46.4002 93.301 46.7939 93.3256 47.126C93.3503 47.4582 93.4305 47.735 93.5661 47.9565C93.7141 48.1779 93.9114 48.344 94.1581 48.4548C94.4047 48.5532 94.7007 48.6024 95.046 48.6024C95.4653 48.6024 95.823 48.5163 96.119 48.344C96.4273 48.1718 96.6801 47.8888 96.8774 47.4951C97.0871 47.1014 97.2536 46.5847 97.3769 45.9449L98.7828 38.9137H103.075L101.613 46.2033C101.231 48.1349 100.448 49.6051 99.2638 50.614C98.0798 51.6228 96.4951 52.1272 94.5096 52.1272Z" fill="white"/>
<path d="M102.486 51.832L105.076 38.9137H110.884C112.599 38.9137 113.924 39.289 114.862 40.0395C115.799 40.7777 116.267 41.8173 116.267 43.1583C116.267 44.241 115.996 45.1883 115.454 46.0003C114.923 46.8123 114.165 47.4459 113.178 47.9011C112.204 48.3563 111.051 48.5839 109.719 48.5839H105.538L107.869 46.7569L106.852 51.832H102.486ZM110.403 51.832L107.74 47.126H112.235L114.936 51.832H110.403ZM107.758 47.2737L106.223 45.299H109.941C110.545 45.299 111.014 45.1514 111.347 44.8561C111.68 44.5485 111.846 44.1241 111.846 43.5828C111.846 43.1152 111.698 42.7831 111.402 42.5862C111.119 42.3771 110.724 42.2725 110.218 42.2725H106.833L109.164 40.2425L107.758 47.2737Z" fill="white"/>
<path d="M56.7673 56.8372L28.3694 0L0 56.8444L9.91885 56.8377C9.91885 56.8377 10.3992 56.861 10.438 56.8217L10.4747 56.7803L9.59847 56.4604C9.36711 56.3771 9.13575 56.2932 8.91889 56.2021C8.06074 55.8372 7.80299 55.4232 7.49451 54.7296C7.1762 54.0324 7.14411 53.2706 7.23624 52.5247C7.32889 51.7732 7.43085 46.5064 13.6733 39.7804C19.7192 33.2662 27.6262 33.0954 29.1251 33.0726C36.8391 32.9562 39.9657 37.1755 40.3679 37.6382C40.3933 37.6677 40.3974 37.7044 40.3788 37.7365C40.3596 37.7681 40.3213 37.7909 40.2753 37.7966C38.5258 38.0165 36.4876 38.5626 34.8014 39.1433C30.3414 40.3984 26.5993 42.6235 23.9871 44.1648C16.1567 48.7858 11.132 56.271 11.132 56.271C13.3975 53.6386 15.3094 51.9704 18.8015 49.1683C33.7051 37.2081 48.1761 54.1572 33.2781 56.8377L56.7673 56.8372ZM46.6653 42.0143C46.6642 42.0464 46.6352 42.0738 46.599 42.0899C46.5773 42.0997 46.5529 42.1044 46.5286 42.1044C46.5115 42.1044 46.4945 42.1023 46.4784 42.0976C45.7088 41.8725 44.9562 41.6437 44.3595 41.4548C44.0981 41.3715 43.9133 41.1846 43.8646 40.9543C43.3554 38.5362 42.1297 36.6434 40.1179 35.1688C39.2303 34.5172 37.3214 33.3066 34.5115 32.5194C33.7522 32.3066 32.9645 32.1369 32.171 32.0147L32.1721 32.0173C31.1126 31.9071 29.8135 31.8351 28.3342 31.8879C26.856 31.9407 25.5724 31.9578 24.5326 32.1426C25.8116 29.3922 27.0905 27.1567 28.3699 24.4063C28.3699 24.4063 30.24 28.1189 30.7084 29.0935C31.1768 30.0681 31.4117 30.6095 31.8802 30.6116C39.2313 30.6442 45.1922 35.1637 46.2647 39.4005C46.3677 39.8094 46.7098 40.8404 46.6653 42.0143Z" fill="white"/>
</svg>
